<svg version="1" xmlns="http://www.w3.org/2000/svg" width="577.333" height="577.333" viewBox="0 0 433.000000 433.000000"><path d="M205.3 9.5c-1.3.9-2.3 2.3-2.3 3.1 0 1.1 2.5 1.4 14.5 1.4 8.8 0 14.5-.4 14.5-1 0-.5-1.2-1.7-2.7-2.7-3.8-2.5-20.9-3.1-24-.8zM198.5 18.5c-12.5 5.8-20.1 8.6-22.2 8-1.4-.3-3.9-.3-5.7 0-2.6.5-3.2 1.1-3.4 3.6L167 33h50c47.5 0 50-.1 50-1.8 0-2.9-2.1-4.2-6.7-4.2-2.9 0-8.2-1.6-16.3-5l-12-5-15.2.1c-10.9 0-16.2.4-18.3 1.4zM125.5 37.3c-2.6 2.2-2.7 2.6-3.2 16.8-.3 8-.3 17.1.1 20.2l.7 5.7h43.5c39.7 0 47 .4 41.7 2.4-.9.4-24.2.6-51.6.6-58.5-.2-53.3-1.3-53.9 11.5l-.3 8 50 .5c27.5.3 49.3.8 48.5 1.2-.8.4-24.1.9-51.7 1-31.8.2-50.5.7-51.1 1.3-.6.5-1.2 6.2-1.3 12.5l-.4 11.5 47.8.3c30.6.1 47.7.6 47.7 1.2 0 .7-17.8 1-50.4 1-30.4 0-51.5.4-53 1-3.3 1.2-3.5 5.2-.5 11.5 2.6 5.6 3.9 5.7 3.9.5v-4h48.9c31.3 0 49.2.4 49.6 1 .4.6-16.1 1.1-47.7 1.2l-48.3.3-.3 44.2-.3 44.3H113v-33h43v33h18.8l.4-12.3c.3-6.7.9-13.1 1.3-14.1.8-1.8.9-1.8 1.6.2.7 1.9 1.6 2.2 5.8 2.2 2.7 0 5.3.5 5.6 1 .8 1.3.7 163.4-.1 165.5-.7 1.7-10.9 2.2-11.9.5-.8-1.3-21.5-1.3-21.5 0 0 .6-7.8 1-21.5 1-14.1 0-21.5-.4-21.5-1 0-.7-3.8-1-10.7-.8l-10.8.3v2.7c.1 1.6-.3 2.8-.7 2.8-.4 0-.8 9.9-.8 22v22h253v-20.4c0-11.2-.3-22.4-.6-25l-.7-4.6h-10.3c-5.8 0-10.6.4-10.9 1-.8 1.4-42.2 1.4-43 0-.8-1.3-21.5-1.3-21.5 0 0 1.1-5.2 1.3-8.7.4l-2.3-.6-.4-73.7c-.3-40.5-.5-76.1-.6-79.1 0-3 .2-7.4.5-9.8l.6-4.2h13.7l.7 6.4c.4 3.5.5 8.9.4 12l-.4 5.6H277l.2-16.3.3-16.2h42.7l-.1 16.2-.2 16.3H340l-.2-44.3-.3-44.2-47.8-.3c-31.2-.1-47.6-.6-47.2-1.2.4-.6 18.2-1 49.1-1H342v2.2c0 1.3.4 2.9.9 3.7.7 1.1 1.2.9 2.4-1 2.5-3.7 4.8-9.9 4.2-10.9-1.6-2.5-10.2-3-57.7-3-32.5 0-49.8-.3-49.8-1s16.7-1 48-1h48v-11.3c0-6.1-.5-11.9-1-12.7-.8-1.3-7.9-1.5-52.5-1.8-32.5-.2-51.5-.6-51.5-1.2s18.1-1 49.5-1H332v-8.5c0-12.8 4.6-11.8-54.3-11.6-27.1.1-50-.1-51-.5-5.3-2 1.9-2.4 41.8-2.4H312V36.2l-2.2-.2c-1.3-.1-42.6-.4-92-.6l-89.6-.5-2.7 2.4zM261 51.1v3.2l2.5-2.7c1.8-2 3.4-2.6 6.5-2.6 8.5 0 12.1 9 6.1 15.1-4 3.9-8.2 3.9-12.2 0l-2.9-2.9V68h-40.6l-1.3-3.7-1.4-3.7-1.9 3.7L214 68h-40V60.7l-2.4 2.6c-4.7 5.1-12.2 4.3-15.2-1.5-4.9-9.4 7.5-17.5 14.7-9.7l2.9 3.1V48h87v3.1zm44.6 120.3c5.4 5.4 3.8 13.3-3.3 16.2-7.1 3-14.6-1.9-14.6-9.5 0-4.3 1.8-7.5 3.6-6.4.6.3.7.1.3-.5-1-1.6 2.3-3.1 6.8-3.2 3 0 4.5.7 7.2 3.4zm-164.6-.1c1.4.8 2.4 1.9 2.3 2.5-.2.7 0 1.2.5 1.2.4 0 .7 1.6.7 3.5s-.3 3.5-.7 3.5c-.5 0-.7.5-.5 1.2.3 1.7-4.3 3.8-8.8 3.8-4.1 0-9-2.4-8-4 .3-.5.1-1.1-.3-1.4-.9-.5-.8-2 .1-7.1.8-4 9.5-5.9 14.7-3.2zm48.6 30.4c-.4.9-2.4 1.3-6.1 1.3h-5.6l1.5-2.8c.8-1.6 3.4-5.3 5.8-8.3l4.3-5.4.3 6.9c.2 3.8.1 7.5-.2 8.3zm63.5-4.8c1.6 2.5 2.9 4.9 2.9 5.3 0 .4-2.4.8-5.4.8h-5.4l-.4-8-.3-7.9 2.9 2.7c1.6 1.5 4.2 4.7 5.7 7.1zM132.4 400.7c.5-.9 1.7-1.7 2.8-1.7 1.9 0 1.9.1-.3 1.9-2.3 1.9-2.4 1.9-.5 4 2.6 2.9 3.6 2.6 3.6-.8 0-1.7.6-3.3 1.3-3.8 1.8-1.1 12.7-1.3 12.7-.2 0 .5-.7.9-1.6.9-1.3 0-1.5.8-1.2 3.5.3 2.7 0 3.5-1.2 3.5s-1.5-.8-1.2-3.5c.3-2.1 0-3.5-.7-3.5-.6 0-1.1.4-1.1 1 0 .5-1.2 1-2.6 1-1.6 0-2.4.5-2.1 1.2.2.7 1.3 1.3 2.5 1.2 1.2 0 1.8.5 1.5 1.2-.3.8-2.4 1.3-5.8 1.3-4.4 0-5.4-.4-6.4-2.2l-1.2-2.2.5 2.2c.3 1.9 0 2.1-5.1 2-6.4 0-8-1.9-4.2-4.8 1.3-1 2-2.1 1.5-2.6-.5-.4-1.1-.2-1.3.4-.3.7-.9 1.3-1.4 1.3-.4 0-.6-.7-.3-1.5.4-.8 1.6-1.5 2.9-1.5 2.3 0 3.5 1.7 3.5 5 0 1 .5 2.2 1.1 2.6.8.4 1-1.2.7-5.5-.3-6.9 1.4-9 2.3-2.7.4 3.1.7 3.7 1.3 2.3zm-32.4-3.5c-.1 2.1-.2 2.1-1.1.5-1.1-1.9-3.4-2.3-4.4-.7-.3.6.8 1.8 2.4 2.8 5.8 3.2 4.8 8.2-1.5 8.2-2.7 0-3.4-.4-3.4-2 0-2.4.6-2.5 2.6-.5 1.4 1.4 4.4 1.1 4.4-.6 0-.4-1.3-1.6-3-2.5-1.6-1-3.2-2.4-3.5-3.2-.8-2.2 1.4-4.2 4.6-4.2 2.3 0 2.9.4 2.9 2.2zm64.9.5c-.1 1.6-.3 2.1-.6 1.1-.5-2-3-3.1-3.9-1.6-.4.6.8 2.3 2.6 3.8 2.5 2.1 3.1 3.1 2.6 4.8-.6 1.8-1.5 2.2-4.7 2.2s-3.9-.3-3.9-2c0-2.4.9-2.6 2.5-.3.8 1.1 1.9 1.4 3.1.9 1.6-.6 1.4-1.1-1.9-4.1-3.2-3-3.6-3.8-2.7-5.5.7-1.3 2.1-2 4-2 2.6 0 3 .3 2.9 2.7zM185 396c0 .5-.4 1-1 1-.5 0-1-.5-1-1 0-.6.5-1 1-1 .6 0 1 .4 1 1zm51 5v6.7c0 1.2-4.2 1.2-6.2.2-3.5-1.9-1.6-7.9 2.5-7.9 1.1 0 1.8-.6 1.6-1.8-.2-2.6 0-3.2 1.1-3.2.6 0 1 2.7 1 6zm5-5c0 .5-.4 1-1 1-.5 0-1-.5-1-1 0-.6.5-1 1-1 .6 0 1 .4 1 1zm-23.8 1.2c-.7.7-1.2 3-1.2 5.3s.5 4.6 1.2 5.3c.9.9.7 1.2-1.2 1.2-2.4 0-2.5-.3-2.5-6.5s.1-6.5 2.5-6.5c1.9 0 2.1.3 1.2 1.2zm66.2.4c1.9 1.9 2 2.6.4 4.2-.9.9-.9 1.2 0 1.2 1.6 0 1.6 3.2 0 4.8-.7.7-3 1.2-5.3 1.2h-4v-13h3.7c2 0 4.4.7 5.2 1.6zm20.6 2.1c.1 3.4.2 3.6 1.4 2 .7-.9 2.1-1.7 3.1-1.7 1.4 0 1.3.3-.6 1.9l-2.4 1.9 2.4 2.6c2.2 2.3 2.2 2.6.6 2.6-1 0-2.4-.8-3.2-1.8-1.4-1.6-1.4-1.6-.9 0 .4 1.3 0 1.8-1.2 1.8-1.4 0-1.7-1-1.7-6.5 0-4.5.4-6.5 1.3-6.5.7 0 1.2 1.4 1.2 3.7zm18.2 2.8c.2 5.3 0 6.5-1.2 6.5s-1.5-1.4-1.5-6.5c0-8.9 2.2-8.9 2.7 0zm-53.8-2.3c.8.5.7.8-.1.8-.8 0-1.3 1.3-1.3 3 0 1.6.5 3 1.1 3 .5 0 .7.4.4 1-1.5 2.5-3.4.8-3.7-3.3-.3-4.2 1.3-9 2.1-6.5.2.7.9 1.6 1.5 2zm-158.1 1c1.6 2.4-.6 6.8-3.4 6.8-1.6 0-2 .5-1.6 2 .4 1.6 0 2-2.1 2-2 0-2.3-.3-1.3-.9 1-.6 1.2-2.4.9-6.4l-.5-5.6 3.5.2c2 .1 3.9.9 4.5 1.9zm8.5 0c.3 1.3-.3 1.8-2.2 1.8-2.9 0-3.5 1.7-1 2.7.9.3 2 0 2.6-.8.8-1.2.9-1.2.6 0-.6 2.1-3.3 3.5-5.2 2.8-1.6-.7-2.3-6.6-.9-8.1 1.3-1.3 5.8-.1 6.1 1.6zm55-1c2 2 1.4 2.8-1.9 2.8-2 0-2.9.4-2.6 1.2.2.7 1.5 1.3 2.9 1.3 1.7-.1 2.4.4 2.1 1.2-.3.7-1.5 1.3-2.7 1.3-4.3 0-6.1-4.4-3-7.4 1.9-1.9 3.6-2 5.2-.4zm11.4 3.5c.2 3.4 0 4.3-1.2 4.3s-1.5-.8-1.2-3.5c.4-3.2.2-3.5-1.9-3.2-2.7.4-3.6 3.1-1.9 5.2 1 1.2.8 1.5-1.1 1.5-2.1 0-2.4-.5-2.4-3.7 0-4.5.8-5.3 5.7-5 3.5.2 3.6.3 4 4.4zm7.9-3.7c2.9 1.6 2.3 3-1.2 3-2 0-2.9.4-2.6 1.2.2.7 1.7 1.2 3.2 1.1 2.6-.2 2.7-.1 1 1.7-1 1.1-2.2 2-2.6 2-1.4 0-3.9-3.1-3.9-5 0-1.7 2.4-5 3.6-5 .3 0 1.4.5 2.5 1zm7.9.6c0 1.3-.3 1.4-1.3.5-.8-.6-1.7-.8-2.1-.4-.3.4.6 1.7 2.1 2.9 2.4 1.9 2.6 2.4 1.4 3.8-2 2.4-5.1 2.1-5-.7 0-1.2.3-1.6.6-1 .2.7 1.2 1.3 2.1 1.3 1.4-.1 1.3-.4-.5-1.9-3.5-2.9-2.8-5.8 1.5-6 .6-.1 1.2.6 1.2 1.5zm5 .5c0 .5-.4.9-1 .9-.5 0-1-.7-1-1.6 0-.8.5-1.2 1-.9.6.3 1 1 1 1.6zm21.2 3.9c.3 3.2 0 4-1.3 4-1.2 0-1.6-.9-1.5-3.3 0-1.7-.3-3.3-.9-3.4-.5-.2-1 1.3-1 3.2 0 2.5-.4 3.5-1.6 3.5-1.2 0-1.6-1-1.5-4.3.1-3.6.4-4.3 2.6-4.8 3.5-.8 4.7.5 5.2 5.1zm14-.5c.2 3.5 0 4.5-1.2 4.5-1.1 0-1.5-1.2-1.5-4.5 0-2.7.5-4.5 1.1-4.5.7 0 1.4 2 1.6 4.5zm7.8-1c0 2 .5 3.5 1.2 3.5 2.3 0 0 1.1-3.1 1.5-4.2.5-5.4-2.1-2.1-4.7 1.2-1 2-2.2 1.6-2.5-.4-.4-1.1-.1-1.6.7-.5.8-1.2 1.1-1.5.8-1.2-1.2.6-2.8 3.1-2.8 2.1 0 2.4.5 2.4 3.5zm13 0c0 1.9.5 3.5 1.1 3.5.5 0 .8.4.5.9-.4.5-2.1.9-3.9.8-2.4-.2-3.2-.7-3.2-2.1 0-1.1.6-2.1 1.3-2.4.7-.2 1 .2.6 1.2-.3.9-.1 1.6.4 1.6.6 0 1-1.4 1-3-.1-3-1.3-4-2.1-1.8-.2.7-.8 1-1.2.6-1.2-1.2.5-2.8 3.1-2.8 2.1 0 2.4.5 2.4 3.5zm39-2.5c0 .6-.7 1-1.6 1-1.3 0-1.5.8-1.2 3.5.4 3.2.2 3.5-2.2 3.4-1.4 0-1.9-.3-1.2-.6 1.4-.6 1.7-6.3.2-6.3-.5 0-1 .4-1 1 0 .5-1.4 1-3.1 1-2.7 0-3 .2-1.9 1.5 1.4 1.7 3.6 2 4.3.5.3-.6.4-.5.3.2-.3 1.8-3.1 3.2-5 2.5-1.9-.7-2.3-7.3-.5-7.9 2.5-.8 12.9-.6 12.9.2zm15.8.2c1.9 1.9 1.4 2.8-1.8 2.8-2.3 0-2.8.4-2.3 1.6.4 1 1.4 1.4 2.9 1.1 1.5-.3 2.1 0 1.7 1-.8 2-5.1 1.6-6.3-.6-2.2-4.3 2.5-9.2 5.8-5.9zm13.8.5c1.7 1.7 1.6 1.8-1.5 2.1-3.6.4-3.8 2.8-.2 2.6 2.6-.1 2.7 1.2.2 2.6-3.7 1.9-7-4.7-3.9-7.8 1.7-1.7 3.4-1.5 5.4.5zm5.4.8c0 1.4.4 2.5.9 2.5 1.2 0 2.3-2.9 1.5-4.1-.3-.5.2-.9 1-.9 2 0 2.1-.2-1 6.9-1.9 4.4-3.2 6.1-4.5 6.1-1.1 0-1.9-.5-1.9-1 0-.6.7-1 1.5-1 2.6 0 2.8-2.8.6-6.5-2.6-4.4-2.6-4.5-.1-4.5 1.5 0 2 .7 2 2.5zm-130 4.4c0 .6-.4 1.3-1 1.6-.5.3-1-.1-1-.9 0-.9.5-1.6 1-1.6.6 0 1 .4 1 .9z"/><path d="M133.5 177.9c-.7 1.2 1.2 2.4 2.5 1.6 1.1-.7.4-2.5-1-2.5-.5 0-1.1.4-1.5.9zM140.5 401c-.3.5.1 1 1 1s1.3-.5 1-1c-.3-.6-.8-1-1-1-.2 0-.7.4-1 1zM123.3 403.7c-1.8.7-1.6 2.3.2 2.3.8 0 1.5-.7 1.5-1.5s-.1-1.5-.2-1.4c-.2 0-.9.3-1.5.6zM230.6 402.5c-.8 2.1.3 4.5 2 4.5.9 0 1.4-1.1 1.4-3 0-3.2-2.3-4.2-3.4-1.5zM278 399.5c0 2 .4 2.6 1.8 2.3.9-.2 1.7-1.2 1.7-2.3 0-1.1-.8-2.1-1.7-2.3-1.4-.3-1.8.3-1.8 2.3zM278 405.5c0 2.7 2.1 3.3 3.9 1.2.8-1 .7-1.7-.1-2.5-2-2-3.8-1.4-3.8 1.3zM105.2 403.7c.3 3 2.3 4.1 3.1 1.8.9-2.1-.2-4.5-2-4.5-1 0-1.3.9-1.1 2.7zM114 401c0 .5.5 1 1 1 .6 0 1-.5 1-1 0-.6-.4-1-1-1-.5 0-1 .4-1 1zM189.8 401.7c.7.3 1.6.2 1.9-.1.4-.3-.2-.6-1.3-.5-1.1 0-1.4.3-.6.6zM245.6 404.9c-.4.7-.5 1.5-.2 1.8.9.9 1.9-.4 1.4-1.8-.4-1.1-.6-1.1-1.2 0zM289 402c0 .5.7 1 1.6 1 .8 0 1.2-.5.9-1-.3-.6-1-1-1.6-1-.5 0-.9.4-.9 1zM313.5 402c-.3.5.1 1 1 1s1.3-.5 1-1c-.3-.6-.8-1-1-1-.2 0-.7.4-1 1zM326.5 402c-.3.5.1 1 1 1s1.3-.5 1-1c-.3-.6-.8-1-1-1-.2 0-.7.4-1 1zM115.5 203.2c-.3.7-.4 39.5-.3 86.3l.3 85 19.3.3 19.2.2V202h-19c-14.3 0-19.2.3-19.5 1.2zM280 287.5c0 47-.1 85.8-.2 86.2-.2.5 8.4.9 19 1.1l19.2.2V202h-38v85.5zM92.1 236.4c-.7.8-1.1 2.7-.9 4.3l.3 2.8 10.8.3 10.7.3V235h-9.9c-7.4 0-10.2.4-11 1.4zM156.7 235.7c-.4.3-.7 2.4-.7 4.5v3.9l10.8-.3 10.7-.3.3-2.8c.6-4.9-1.1-5.7-11.3-5.7-5 0-9.5.3-9.8.7zM256.8 235.7c-2.3.6-3.2 3.7-1.8 6.3 1 1.8 2 2 11.5 2H277v-9l-9.2.1c-5.1.1-10.1.3-11 .6zM320.7 235.6c-.4.4-.7 2.5-.7 4.6v3.9l11.3-.3 11.2-.3v-8l-10.6-.3c-5.8-.1-10.8.1-11.2.4zM94.7 246.7c-.9.8-.9 62.5-.1 68.7l.7 4.6H113v-74h-8.8c-4.9 0-9.2.3-9.5.7zM156 283v37h17.9l.6-4.3c.3-2.3.5-18.8.3-36.7l-.3-32.5-9.2-.3-9.3-.3V283zM260.2 282.7l.3 36.8 8.3.3 8.2.3V246h-17l.2 36.7zM320.5 247.3c-.3.6-.4 17.2-.3 36.7l.3 35.5 9.8.3 9.7.3V246h-9.5c-6.8 0-9.7.4-10 1.3zM91.4 324.4c-.3 1.4-.3 3.4.1 4.5.6 1.9 1.4 2.1 11.1 2.1H113v-9h-10.5c-10.2 0-10.5.1-11.1 2.4zM156.2 326.2l.3 4.3 9.2.3c10.2.3 13.3-.7 13.3-4.1 0-4.1-1.8-4.7-12.8-4.7h-10.3l.3 4.2zM256.2 323.2c-1.9 2.5-2.5 6-1.1 6.9.8.5 6 .9 11.7.9H277v-9h-9.9c-6.7 0-10.2.4-10.9 1.2zM320.2 326.2l.3 4.3 10.5.3c8.6.2 10.7 0 11.6-1.3 1.3-1.7.7-5.6-1-6.7-.6-.4-5.7-.8-11.4-.8h-10.3l.3 4.2zM94 353v20h19v-40H94v20zM156 353v20h19v-40h-19v20zM260 339.2c0 3.5-.1 12.5-.3 20.1l-.2 13.7H277v-40h-17v6.2zM320.2 352.7l.3 19.8 9.8.3 9.7.3V333h-20l.2 19.7z"/></svg>