<svg version="1" xmlns="http://www.w3.org/2000/svg" width="577.333" height="577.333" viewBox="0 0 433.000000 433.000000"><path d="M205.3 9.5c-1.3.9-2.3 2.3-2.3 3.1 0 1.1 2.5 1.4 14.5 1.4 8.8 0 14.5-.4 14.5-1 0-2.5-5.2-4.2-14.7-4.7-8.1-.4-10.2-.2-12 1.2zM197.5 19c-4.1 1.9-8 3.6-14.9 6.4-2.1.9-6.4 1.6-9.5 1.6-5.5 0-5.6.1-5.8 3l-.2 3H217c47.5 0 50-.1 50-1.8 0-2.9-2.1-4.2-7-4.2-3.3 0-8-1.4-16.4-5l-11.8-5-15.2.1c-12.5 0-15.8.3-19.1 1.9zM127 36.2c-3.5 1.3-4 4.2-4 24.2V80h43.6c34.4 0 43.5.3 43.2 1.2-.4 1-11.9 1.4-52.1 1.6L106 83l-1.4 2.3c-.9 1.3-1.6 5.2-1.7 9.7l-.2 7.5 49.6.3c32 .1 49.7.6 49.7 1.2 0 .7-17.6 1-49.9 1-30.1 0-51 .4-52.5 1-2.6.9-2.6 1-2.6 13v12h48.1c43.3 0 48 .2 46.9 1.5-1.2 1.4-7.5 1.6-52.8 1.4-55.1-.1-53.1-.3-53.2 4.8 0 2.6 4 11.3 5.2 11.3.4 0 .8-1.8.8-4v-4l49.3.2c31.9.2 49.2.7 49.2 1.3 0 .6-16.8 1.1-47.7 1.3L95 145l-.1 2.3c-.1 1.2-.3 21-.4 43.9l-.1 41.8H113v-33h43v33h19v-10.3c0-5.6.5-12 1.1-14.2 1.1-3.7 1.2-3.8 2-1.8.7 2 1.6 2.3 6.3 2.3h5.4l.3 7.7c.2 4.3.2 42-.1 83.8l-.5 76-5.4.3c-3 .2-5.9-.2-6.4-.7-1.4-1.4-20.4-1.4-21.2-.1-.8 1.4-43.5 1.4-43.5 0 0-1.2-18.9-1.3-20.9-.1-.8.5-1.2 1.8-.8 3 .3 1.2.1 2.1-.4 2.1s-.9 9.5-.9 22v22h253v-20.4c0-11.2-.3-22.4-.6-25l-.7-4.6h-10.3c-5.8 0-10.6.4-10.9 1-.8 1.4-42.2 1.4-43 0-.8-1.3-20.2-1.3-21 0-.3.6-2.6 1-5 1-8.3 0-7.5 7.5-7.5-74.6V229h-16c-13.1 0-16-.3-16-1.4 0-.8-.6-1.6-1.2-1.9-2.4-.8 14.3-1.9 23.3-1.5 10.2.5 9.7 1 10.1-9.2l.3-5.5 6.2-.3c4.8-.2 6.3-.7 6.5-2 .8-3.4 2.8 9.1 2.8 17.3v8.5h17v-33h44v33h19v-88l-47.7-.2c-37-.2-47.7-.6-48.1-1.6-.3-.9 9.9-1.2 48.6-1.2h49l.6 3.6c.9 4.5 2.5 3.4 5.6-3.7 2.1-4.9 2.1-5.1.3-6.5-2.2-1.7 2.3-1.6-56.3-1.4-27.2.1-49.7.5-50 .9-1.5 2.4-30.8 2.2-29.3-.1.3-.6-.1-1.4-.8-1.9-1.6-1-3.4-.9 71.6-1.8l54-.6.3-11c.3-10.2.1-11.1-1.9-12.8-2-1.6-6-1.7-52.5-1.7-32.9 0-50.4-.3-50.4-1s17.2-1 49.5-1H332v-8.5c0-7.8-.2-8.6-2.4-10-2-1.3-9.3-1.6-53.1-1.8-39.6-.1-50.9-.5-51.2-1.5-.4-.9 8.7-1.2 43.1-1.2H312V59.2c0-11.4-.4-21.2-.8-21.7-.4-.6-1.6-1.1-2.7-1.3-4.3-.6-179.7-.7-181.5 0zm134 14.5c0 3.8.1 3.8 1.8 1.6 2.7-3.5 6.7-4.5 10.7-2.9 3.9 1.7 5.5 4.2 5.5 8.9 0 4.3-4.6 8.7-9 8.7-1.6 0-4.2-1.1-5.9-2.6l-3.1-2.6V68h-40.6l-1.6-3.3-1.6-3.2-1.2 3.3-1.2 3.2-20.7-.2-20.6-.3.2-3.5c.3-3.5.3-3.5-1.5-1.4-5.7 7.1-15.5 4.9-16.8-3.7-.5-3.1-.1-4.2 2.4-7 4-4.4 8.8-4.6 13.3-.4l3 3-.5-2.9c-.3-1.6-.3-3.3 0-3.8.3-.4 20.1-.8 44-.8H261v3.7zm-37 99c2.8 2.6 3.1 3.4 3.3 10.1.2 7.2.2 7.3-2.3 7-2.3-.3-2.4-.6-2.1-5.1.5-8.1-4.3-12.3-9.1-8-1.3 1.2-1.8 3.1-1.8 7.4 0 5.2-.2 5.7-2 5.2-4-1.1-1.9-15.5 2.7-18.2 3.4-1.9 8.1-1.3 11.3 1.6zm79.8 19.6c4.8 2.3 6.7 10.1 3.6 14.5-1.9 2.7-6.5 5.2-9.6 5.2-4.1 0-8.6-3.6-9.9-7.8-1.8-6.2 1.2-11.3 8.1-13.5 1.8-.6 4.6 0 7.8 1.6zm-163 1.3c2.9 1.9 5 6.7 4.4 9.9-.8 4.2-5.6 7.8-10.3 7.8-8.2 0-12.8-9.4-7.8-15.7 3.8-4.8 8.4-5.4 13.7-2zm72.5 17.4c-.1 4.4-.4 8-.7 8h-2.1c-1.2 0-1.5-1.6-1.5-8 0-7.6.1-8 2.3-8 2.1 0 2.2.3 2 8zm12.7.5c0 8.4 0 8.5-2.5 8.5s-2.5-.1-2.5-8.5 0-8.5 2.5-8.5 2.5.1 2.5 8.5zm12 .1c0 8.3-.1 8.5-2.2 8.2-1.3-.2-2.2-.6-2-1.1.1-.4.2-4.1.2-8.2 0-6.8.2-7.5 2-7.5s2 .7 2 8.6zm-48.4 13.1c-.4.9-2.4 1.3-6.1 1.3H178l1.9-3.8c1.1-2 3.7-5.7 5.8-8.2l3.8-4.4.3 6.8c.2 3.8.1 7.5-.2 8.3zm64.7-2.8l2.6 4.6-6.4-.3-6.3-.4v-16.1l3.8 3.8c2.1 2 4.9 5.8 6.3 8.4zM132.4 400.7c.5-.9 1.7-1.7 2.8-1.7 1.9 0 1.9.1-.3 1.9-2.3 1.9-2.4 1.9-.5 4 2.7 3 3.4 2.6 3.8-1.7l.3-3.7 6.8-.2c3.8-.1 6.7.2 6.7.7 0 .6-.7 1-1.6 1-1.3 0-1.5.8-1.2 3.5.4 3.2.2 3.5-2.2 3.4-1.4 0-1.9-.3-1.2-.6 1.4-.6 1.7-6.3.2-6.3-.5 0-1 .4-1 1 0 .5-1.1 1-2.5 1-2.8 0-3.4 1.7-.9 2.7.9.3 2 0 2.5-.8s.9-1 .9-.4c0 2.4-1.8 3.3-6.6 3.3-4.3.1-5.3-.3-6.3-2.1l-1.2-2.2.5 2.2c.4 2 0 2.2-5.2 2-4.4-.2-5.7-.6-6-1.9-.2-.9.6-2.2 1.7-2.8 1.2-.6 2.1-1.6 2.1-2.2 0-.7-.5-.6-1.5.2-1.8 1.5-3.4.5-1.8-1.1.6-.6 2.1-.9 3.4-.7 1.8.2 2.5 1 2.7 3.3.2 1.6.8 3.4 1.4 4 .6.7.9-1.1.6-5.3-.3-7 1.4-9.2 2.3-2.8.4 3.1.7 3.7 1.3 2.3zm-32.4-3.5c-.1 2.1-.2 2.1-1.1.5-1.1-1.9-3.4-2.3-4.4-.7-.3.5 1 1.9 2.9 3.1 5.6 3.3 4.3 7.9-2.1 7.9-2.6 0-3.3-.4-3.3-2 0-2.4.6-2.5 2.6-.5 1.4 1.4 4.4 1.1 4.4-.6 0-.4-1.3-1.6-3-2.5-5.3-3.2-5-7.4.6-7.4 2.9 0 3.4.4 3.4 2.2zm64.9.5c-.1 1.6-.3 2.1-.6 1.1-.5-2-3-3.1-3.9-1.6-.4.6.8 2.3 2.6 3.8 2.5 2.1 3.1 3.1 2.6 4.8-.6 1.8-1.5 2.2-4.7 2.2s-3.9-.3-3.9-2c0-2.4.9-2.6 2.5-.3.8 1.1 1.9 1.4 3.1.9 1.6-.6 1.4-1.1-1.9-4.1-3.2-3-3.6-3.8-2.7-5.5.7-1.3 2.1-2 4-2 2.6 0 3 .3 2.9 2.7zM185 396c0 .5-.4 1-1 1-.5 0-1-.5-1-1 0-.6.5-1 1-1 .6 0 1 .4 1 1zm51 5v6.7c0 1.2-4.2 1.2-6.2.2-3.5-1.9-1.6-7.9 2.5-7.9 1.1 0 1.8-.6 1.6-1.8-.2-2.6 0-3.2 1.1-3.2.6 0 1 2.7 1 6zm5-5.1c0 .6-.4 1.3-1 1.6-.5.3-1-.1-1-.9 0-.9.5-1.6 1-1.6.6 0 1 .4 1 .9zm-23.8 1.3c-.7.7-1.2 3-1.2 5.3s.5 4.6 1.2 5.3c.9.9.7 1.2-1.2 1.2-2.4 0-2.5-.3-2.5-6.5s.1-6.5 2.5-6.5c1.9 0 2.1.3 1.2 1.2zm66.4.2c1.6 1.3 1.7 1.8.6 3.5-.7 1.3-.8 2.1-.2 2.1 1.6 0 1.1 4.7-.6 5.4-.9.3-3.2.6-5.2.6h-3.7v-13h3.6c1.9 0 4.4.6 5.5 1.4zm20.4 2.3c.1 3.4.2 3.6 1.4 2 .7-.9 2.1-1.7 3.1-1.7 1.4 0 1.3.3-.6 1.9l-2.4 1.9 2.4 2.6c2.2 2.3 2.2 2.6.6 2.6-1 0-2.4-.8-3.2-1.8-1.4-1.6-1.4-1.6-.9 0 .4 1.3 0 1.8-1.2 1.8-1.4 0-1.7-1-1.7-6.5 0-4.5.4-6.5 1.3-6.5.7 0 1.2 1.4 1.2 3.7zm18.2 2.8c.2 5.3 0 6.5-1.2 6.5s-1.5-1.4-1.5-6.5c0-8.9 2.2-8.9 2.7 0zm-53.8-2.3c.8.5.7.8-.1.8-.8 0-1.3 1.3-1.3 3 0 1.6.5 3 1.1 3 .5 0 .7.4.4 1-1.5 2.5-3.4.8-3.7-3.3-.3-4.2 1.3-9 2.1-6.5.2.7.9 1.6 1.5 2zm-158.4.4c1.9 2.2.1 6.8-2.9 7.2-1.7.3-2.2.9-1.8 2.3.4 1.5 0 1.9-2.1 1.9-2 0-2.3-.3-1.3-.9 1-.6 1.2-2.4.9-6.5l-.5-5.6h3.2c1.8 0 3.8.7 4.5 1.6zm8.8.6c.3 1.3-.3 1.8-2.2 1.8-2.9 0-3.5 1.7-1 2.7.9.3 2 0 2.6-.8.8-1.2.9-1.2.6 0-.6 2.1-3.3 3.5-5.2 2.8-1.6-.7-2.3-6.6-.9-8.1 1.3-1.3 5.8-.1 6.1 1.6zm55-1c1.9 1.9 1.4 2.8-1.8 2.8-2.3 0-2.8.4-2.3 1.6.4 1.1 1.3 1.4 2.9 1 1.8-.5 2.2-.3 1.8.8-1.3 3.5-7.4 1.8-7.4-2.1 0-4.3 4.1-6.8 6.8-4.1zm11.4 3.5c.2 3.4 0 4.3-1.2 4.3s-1.5-.8-1.2-3.4c.4-3 .1-3.5-1.7-3.3-2.5.2-3.7 3.2-2.1 5.2 1 1.2.8 1.5-1.1 1.5-2.1 0-2.4-.5-2.4-3.7 0-4.5.8-5.2 5.6-5 3.6.1 3.7.2 4.1 4.4zm7.9-3.7c2.9 1.6 2.3 3-1.2 3-2 0-2.9.4-2.6 1.2.2.7 1.6 1.2 3.1 1.1 1.4-.1 2.6 0 2.6.2 0 .7-3.2 3.5-4 3.5-1.5 0-4-3.1-4-5 0-1.7 2.4-5 3.6-5 .3 0 1.4.5 2.5 1zm7.8 1.2c0 1.3-.3 1.7-.6 1-.2-.6-1.2-1.2-2.1-1.2-1.2 0-.8.6 1.1 1.8 1.5.9 2.7 2.1 2.7 2.7 0 1.7-2.2 3.5-4.1 3.5-1.4 0-1.8-.9-1.7-4.3 0-5.1.3-5.7 2.9-5.7 1.3 0 1.9.7 1.8 2.2zm5.1-.7c0 .8-.4 1.5-1 1.5-.5 0-1-.7-1-1.5s.5-1.5 1-1.5c.6 0 1 .7 1 1.5zm19.8-.3c.5.7 1.2 3 1.4 5 .3 3.2.1 3.8-1.4 3.8-1.4 0-1.7-.5-1.2-2.4.3-1.4.1-3.3-.4-4.3-1-1.7-1.1-1.7-1.7 0-.4.9-.5 2.9-.3 4.2.4 1.8.1 2.5-1.1 2.5-1.2 0-1.6-1-1.6-4.5 0-3.6.4-4.5 2-4.8 1.1-.2 2.3-.5 2.6-.6.4 0 1.1.5 1.7 1.1zm15.4 4.3c.2 3.5 0 4.5-1.2 4.5-1.1 0-1.5-1.2-1.5-4.5-.1-6 2.2-6 2.7 0zm7.8-1c0 1.9.5 3.5 1.1 3.5 2.6 0-.4 1.7-3.1 1.8-4.1.1-5.1-2.5-2-5 1.2-1 2-2.2 1.6-2.5-.4-.4-1.1-.1-1.6.7-.5.8-1.2 1.1-1.5.8-1.2-1.2.6-2.8 3.1-2.8 2.1 0 2.4.5 2.4 3.5zm13 0c0 1.9.5 3.5 1.1 3.5 2.6 0-.4 1.7-3.1 1.8-4.1.1-5.1-2.5-1.9-4.9 1.3-1 2-2.1 1.6-2.6-.5-.4-1.2-.1-1.7.7-.5.8-1.2 1.1-1.5.8-1.2-1.2.6-2.8 3.1-2.8 2.1 0 2.4.5 2.4 3.5zm39-2.4c0 .5-.7.9-1.6.9-1.3 0-1.5.8-1.2 3.5.4 3.2.2 3.5-2.2 3.4-1.4 0-1.9-.3-1.2-.6 1.4-.6 1.7-6.3.2-6.3-.5 0-1 .4-1 1 0 .5-1.4 1-3.1 1-2.7 0-3 .2-1.9 1.5 1.5 1.8 4 2 4 .3 0-.6.2-.9.5-.6 1.4 1.4-.9 3.9-3.4 3.6-2-.2-2.7-.9-2.9-3.1-.6-4.9.1-5.5 7.2-5.5 3.6 0 6.6.4 6.6.9zm15.4-.5c2.8 1.1 1.8 3.4-1.4 3.4-2.3 0-2.8.4-2.3 1.6.4 1 1.4 1.4 2.9 1.1 1.5-.3 2.1 0 1.7 1-.8 2-5.1 1.6-6.3-.6-1-2.1-.4-5.1 1.4-6.3 1.3-.9 2-1 4-.2zm13.7.4c2.9 1.6 2.3 3-1.2 3-2 0-2.9.4-2.6 1.2.2.7 1.4 1.3 2.6 1.2 2.5-.1 2.7 1.1.4 2.5-4 2.2-7.4-4.4-4.1-7.7 1.5-1.5 2.4-1.5 4.9-.2zm5.9 1.5c0 1.4.4 2.5.9 2.5 1.2 0 2.3-2.9 1.5-4.1-.3-.5.2-.9 1-.9 2 0 2.1-.2-1 6.9-1.9 4.4-3.2 6.1-4.5 6.1-1.1 0-1.9-.5-1.9-1 0-.6.7-1 1.5-1 2.6 0 2.8-2.8.6-6.5-2.6-4.4-2.6-4.5-.1-4.5 1.5 0 2 .7 2 2.5zm-130 5c0 .8-.4 1.5-1 1.5-.5 0-1-.7-1-1.5s.5-1.5 1-1.5c.6 0 1 .7 1 1.5z"/><path d="M210.9 151.6c-1.3 1.6-2.7 14.5-1.4 13.2.4-.3.8-2.7 1-5.1.2-2.5 1.1-5.7 2-7.1 1.9-2.8.6-3.6-1.6-1zM210.8 188.1c-.1 3.4 0 6.3.5 6.6.4.2.7-2.5.7-6.1 0-3.6-.2-6.6-.4-6.6s-.6 2.7-.8 6.1zM140.5 401c-.3.5.1 1 1 1s1.3-.5 1-1c-.3-.6-.8-1-1-1-.2 0-.7.4-1 1zM122 405c0 .5.4 1 .9 1 .6 0 1.3-.5 1.6-1 .3-.6-.1-1-.9-1-.9 0-1.6.4-1.6 1zM230.6 402.5c-.8 2.1.3 4.5 2 4.5.9 0 1.4-1.1 1.4-3 0-3.2-2.3-4.2-3.4-1.5zM278 399.5c0 2 .4 2.6 1.8 2.3.9-.2 1.7-1.2 1.7-2.3 0-1.1-.8-2.1-1.7-2.3-1.4-.3-1.8.3-1.8 2.3zM278 405.5c0 2 .4 2.6 1.8 2.3.9-.2 1.7-1.2 1.7-2.3 0-1.1-.8-2.1-1.7-2.3-1.4-.3-1.8.3-1.8 2.3zM105.2 403.7c.3 3 2.3 4.1 3.1 1.8.9-2.1-.2-4.5-2-4.5-1 0-1.3.9-1.1 2.7zM114 401c0 .5.5 1 1 1 .6 0 1-.5 1-1 0-.6-.4-1-1-1-.5 0-1 .4-1 1zM189.8 401.7c.7.3 1.6.2 1.9-.1.4-.3-.2-.6-1.3-.5-1.1 0-1.4.3-.6.6zM197 406c0 .5.7 1 1.6 1 .8 0 1.2-.5.9-1-.3-.6-1-1-1.6-1-.5 0-.9.4-.9 1zM245.6 404.9c-.4.7-.5 1.5-.2 1.8.9.9 1.9-.4 1.4-1.8-.4-1.1-.6-1.1-1.2 0zM258 406c0 .5.5 1 1 1 .6 0 1-.5 1-1 0-.6-.4-1-1-1-.5 0-1 .4-1 1zM289 402c0 .5.7 1 1.6 1 .8 0 1.2-.5.9-1-.3-.6-1-1-1.6-1-.5 0-.9.4-.9 1zM313.5 402c-.3.5-.1 1 .4 1 .6 0 1.1-.5 1.1-1 0-.6-.2-1-.4-1-.3 0-.8.4-1.1 1zM326.8 402.7c.7.3 1.6.2 1.9-.1.4-.3-.2-.6-1.3-.5-1.1 0-1.4.3-.6.6zM115.5 203.2c-.3.7-.4 39.5-.3 86.3l.3 85 19.3.3 19.2.2V202h-19c-14.3 0-19.2.3-19.5 1.2zM280 288.5V375h38V202h-38v86.5zM256.8 235.7c-1 .2-1.8.8-1.8 1.3s-.3 1.5-.6 2.3c-.3.8.2 2.2 1.1 3.1 1.3 1.3 3.7 1.6 11.6 1.6h9.9v-8h-7.9c-4.4 0-8.5-.2-9.3-.4-.7-.2-2.1-.2-3 .1zM331.3 235.8l-10.3.3v8l10.8-.3 10.7-.3.3-3.4c.2-1.8 0-3.6-.5-4-.4-.3-5.4-.5-11-.3zM91.4 237.4c-.3.8-.4 2.5-.2 3.8.3 2.2.7 2.3 11.1 2.6l10.7.3V236h-10.5c-8.2 0-10.7.3-11.1 1.4zM156 240v4h10.5c10.3 0 10.5 0 11.1-2.5 1.3-5 .3-5.5-11.1-5.5H156v4zM95 246.2c0 .2-.3 14.7-.6 32.3-.3 17.6-.1 34 .3 36.5l.9 4.5 8.7.3 8.7.3V246h-9c-4.9 0-9 .1-9 .2zM156.5 247.2c-.3.7-.4 17.3-.3 36.8l.3 35.5 8.7.3 8.6.3.7-6.3c.3-3.5.5-20 .3-36.8l-.3-30.5-8.8-.3c-6.4-.2-8.9.1-9.2 1zM260.2 282.7l.3 36.8 8.3.3 8.2.3V246h-17l.2 36.7zM321 283v37h19v-74h-19v37zM91.6 324.4c-1.3 5.1-.2 5.6 11 5.6H113v-8h-10.4c-10.2 0-10.4.1-11 2.4zM156.2 326.1l.3 4.1h10.2c5.7 0 10.7-.3 11.3-.7 1.4-.9 1.3-4.8-.2-6.3-.8-.8-4.8-1.2-11.6-1.2h-10.3l.3 4.1zM256.3 323.2c-.6.7-1.3 2.5-1.7 4l-.6 2.8h23v-8h-9.9c-6.7 0-10.2.4-10.8 1.2zM321 326v4h22v-3.4c0-4.3-.8-4.6-12.6-4.6H321v4zM94.5 352.8v19.7l9.3.3 9.2.3V333H94.5v19.8zM156 353v20h19v-40h-19v20zM260 351.4c0 10.1-.3 19.1-.6 20-.5 1.4.6 1.6 8.5 1.6h9.1v-40h-17v18.4zM321 353v20h19v-40h-19v20z"/></svg>